<?xml version="1.0" encoding="UTF-8"?>
<svg id="Layer_3" data-name="Layer 3" xmlns="http://www.w3.org/2000/svg" xmlns:xlink="http://www.w3.org/1999/xlink" viewBox="0 0 1764.69 530.09">
  <defs>
    <style>
      .cls-1 {
        fill: url(#linear-gradient-8);
      }

      .cls-2 {
        fill: url(#linear-gradient-7);
      }

      .cls-3 {
        fill: url(#linear-gradient-5);
      }

      .cls-4 {
        fill: url(#linear-gradient-6);
      }

      .cls-5 {
        fill: url(#linear-gradient-4);
      }

      .cls-6 {
        fill: url(#linear-gradient-3);
      }

      .cls-7 {
        fill: url(#linear-gradient-2);
      }

      .cls-8 {
        fill: url(#linear-gradient);
      }
    </style>
    <linearGradient id="linear-gradient" x1="17.12" y1="261.91" x2="572.53" y2="261.91" gradientUnits="userSpaceOnUse">
      <stop offset="0" stop-color="#a18a50"/>
      <stop offset=".5" stop-color="#c5a662"/>
      <stop offset="1" stop-color="#a0894f"/>
    </linearGradient>
    <linearGradient id="linear-gradient-2" x1="250.43" y1="196.88" x2="339.22" y2="196.88" xlink:href="#linear-gradient"/>
    <linearGradient id="linear-gradient-3" x1="179.15" y1="401.16" x2="232.15" y2="401.16" gradientUnits="userSpaceOnUse">
      <stop offset="0" stop-color="#a18a50"/>
      <stop offset="1" stop-color="#c5a662"/>
    </linearGradient>
    <linearGradient id="linear-gradient-4" x1="543.43" y1="278.34" x2="543.43" y2="377.63" gradientUnits="userSpaceOnUse">
      <stop offset="0" stop-color="#231f20" stop-opacity="0"/>
      <stop offset="1" stop-color="#231f20"/>
    </linearGradient>
    <linearGradient id="linear-gradient-5" x1="332.15" y1="391.63" x2="571.5" y2="391.63" xlink:href="#linear-gradient"/>
    <linearGradient id="linear-gradient-6" x1="1399.12" y1="336.4" x2="1807.74" y2="336.4" xlink:href="#linear-gradient"/>
    <linearGradient id="linear-gradient-7" x1="1399.12" y1="337.56" x2="1807.74" y2="337.56" xlink:href="#linear-gradient"/>
    <linearGradient id="linear-gradient-8" x1="1399.12" y1="199.87" x2="1807.74" y2="199.87" xlink:href="#linear-gradient"/>
  </defs>
  <g>
    <path class="cls-8" d="M545.03,523.8c-14.62-.38-26.08-12.76-26.08-27.38V214.27s0-.03-.02-.04L298.95,60.44s-.04-.01-.05,0L70.72,214.51s-.02.02-.02.04v281.87c0,14.62-11.46,27.01-26.08,27.38-15.12.39-27.5-11.75-27.5-26.78V197.47c0-7.14,3.55-13.82,9.47-17.81L287.21,3.68c7.37-4.98,17.05-4.9,24.34.2l251.8,176.04c5.75,4.02,9.18,10.6,9.18,17.61v299.5c0,15.03-12.38,27.17-27.5,26.78Z"/>
    <circle class="cls-7" cx="294.82" cy="196.88" r="44.4"/>
    <path class="cls-6" d="M205.65,526.13c-14.64,0-26.5-11.86-26.5-26.5v-196.94c0-14.64,11.86-26.5,26.5-26.5s26.5,11.86,26.5,26.5v196.94c0,14.64-11.86,26.5-26.5,26.5Z"/>
    <path class="cls-5" d="M571.5,377.63l-15.32-49.65c-5.46-12.51-18.16-31.08-27.66-40.88l-13.17-8.77h56.15v99.29Z"/>
    <path class="cls-3" d="M545,526.13c-14.64,0-26.5-11.86-26.5-26.5v-113.81c0-41.74-29.91-75.69-66.68-75.69s-66.68,33.96-66.68,75.69v113.81c0,14.64-11.86,26.5-26.5,26.5s-26.5-11.86-26.5-26.5v-113.81c0-70.96,53.69-128.69,119.68-128.69s119.68,57.73,119.68,128.69v113.81c0,14.64-11.86,26.5-26.5,26.5Z"/>
  </g>
  <g>
    <path d="M683.8,523.09v-41.53h7.71v35h21.71v6.53h-29.42Z"/>
    <path d="M757.89,523.69c-5.66,0-10.09-1.6-13.32-4.81-3.22-3.2-4.84-7.85-4.84-13.94v-23.37h7.71v23.14c0,4.27.92,7.38,2.76,9.31,1.84,1.94,4.44,2.91,7.8,2.91s5.95-.97,7.77-2.91c1.82-1.94,2.73-5.04,2.73-9.31v-23.14h7.59v23.37c0,6.09-1.61,10.74-4.84,13.94-3.22,3.2-7.68,4.81-13.38,4.81Z"/>
    <path d="M802.62,523.09l17.5-24.14v5.87l-16.73-23.26h8.78l12.46,17.14-3.62.06,12.28-17.2h8.36l-16.55,22.84v-5.58l17.56,24.26h-8.84l-13.05-18.27h3.5l-12.87,18.27h-8.78Z"/>
    <path d="M887.34,523.69c-5.66,0-10.09-1.6-13.32-4.81-3.22-3.2-4.84-7.85-4.84-13.94v-23.37h7.71v23.14c0,4.27.92,7.38,2.76,9.31,1.84,1.94,4.44,2.91,7.8,2.91s5.95-.97,7.77-2.91c1.82-1.94,2.73-5.04,2.73-9.31v-23.14h7.59v23.37c0,6.09-1.61,10.74-4.84,13.94-3.22,3.2-7.68,4.81-13.38,4.81Z"/>
    <path d="M937.11,523.09v-41.53h17.08c3.68,0,6.83.58,9.46,1.75,2.63,1.17,4.66,2.86,6.08,5.07,1.42,2.21,2.14,4.86,2.14,7.95s-.71,5.66-2.14,7.83c-1.42,2.18-3.45,3.86-6.08,5.04-2.63,1.19-5.78,1.78-9.46,1.78h-12.75l3.38-3.44v15.54h-7.71ZM944.82,508.38l-3.38-3.74h12.4c3.4,0,5.96-.73,7.68-2.19s2.58-3.5,2.58-6.11-.86-4.64-2.58-6.08c-1.72-1.44-4.28-2.17-7.68-2.17h-12.4l3.38-3.8v24.08ZM964.28,523.09l-10.5-15.07h8.25l10.56,15.07h-8.31Z"/>
    <path d="M1011.44,523.09v-16.43l1.78,4.69-18.09-29.78h8.19l14.59,24.03h-4.63l14.53-24.03h7.59l-18.03,29.78,1.72-4.69v16.43h-7.65Z"/>
    <path d="M1098.35,523.09v-41.53h17.08c3.68,0,6.83.58,9.46,1.75,2.63,1.17,4.66,2.86,6.08,5.07,1.42,2.21,2.14,4.86,2.14,7.95s-.71,5.66-2.14,7.83c-1.42,2.18-3.45,3.86-6.08,5.04-2.63,1.19-5.78,1.78-9.46,1.78h-12.75l3.38-3.44v15.54h-7.71ZM1106.06,508.38l-3.38-3.74h12.4c3.4,0,5.96-.73,7.68-2.19s2.58-3.5,2.58-6.11-.86-4.64-2.58-6.08c-1.72-1.44-4.28-2.17-7.68-2.17h-12.4l3.38-3.8v24.08ZM1125.52,523.09l-10.5-15.07h8.25l10.56,15.07h-8.31Z"/>
    <path d="M1170.19,516.57h23.43v6.53h-31.15v-41.53h30.31v6.53h-22.6v28.48ZM1169.6,498.83h20.64v6.35h-20.64v-6.35Z"/>
    <path d="M1222.99,523.09v-41.53h6.35l26.04,32.03h-3.14v-32.03h7.59v41.53h-6.35l-25.98-32.03h3.14v32.03h-7.65Z"/>
    <path d="M1300.23,523.09v-35h-13.76v-6.53h35.24v6.53h-13.76v35h-7.71Z"/>
    <path d="M1342.41,523.09l18.69-41.53h7.59l18.75,41.53h-8.13l-16.02-37.43h3.08l-16.08,37.43h-7.89ZM1351.01,513.48l2.14-6.05h22.37l2.08,6.05h-26.58Z"/>
    <path d="M1413.48,523.09v-41.53h7.71v35h21.71v6.53h-29.42Z"/>
  </g>
  <g>
    <path d="M683.8,426.93v-253.2h106.81c20.19,0,36.71,3.21,49.55,9.63,12.84,6.42,22.3,15.32,28.37,26.7,6.07,11.38,9.11,24.49,9.11,39.31,0,13.31-2.07,24.54-6.22,33.71-4.15,9.17-9.57,16.78-16.29,22.85-6.71,6.07-14.04,11.03-21.97,14.88l47.1,106.11h-53.06l-41.32-97.53h-51.13v97.53h-50.95ZM734.75,290h46.75c13.66,0,24.48-3.68,32.48-11.03,7.99-7.35,11.99-16.81,11.99-28.37s-3.85-20.89-11.56-27.67c-7.7-6.77-17.45-10.16-29.24-10.16h-50.43v77.22Z"/>
    <path d="M997.76,430.43c-17.98,0-33.77-3.76-47.37-11.29-13.6-7.53-24.19-18.18-31.78-31.96-7.59-13.77-11.38-30-11.38-48.68s3.47-34.41,10.42-48.94c6.94-14.53,16.95-26.03,30.03-34.5,13.07-8.46,28.89-12.69,47.45-12.69s33.91,3.88,46.4,11.64c12.49,7.76,21.95,18.56,28.37,32.39,6.42,13.83,9.63,29.8,9.63,47.89v13.83h-121.7c0,9.22,1.52,17.25,4.55,24.08,3.03,6.83,7.44,12.08,13.22,15.76,5.78,3.68,12.75,5.52,20.92,5.52,8.76,0,16.4-1.87,22.94-5.6,6.54-3.73,11.09-9.86,13.66-18.39h46.22c-2.1,12.84-7.24,23.81-15.41,32.92-8.17,9.11-18.1,16.05-29.77,20.84-11.67,4.79-23.81,7.18-36.42,7.18ZM957.84,317.67h73.89c0-7.24-1.37-13.86-4.11-19.87-2.75-6.01-6.83-10.8-12.26-14.36-5.43-3.56-12.23-5.34-20.4-5.34s-14.51,1.9-20.05,5.69c-5.55,3.79-9.81,8.73-12.78,14.8-2.98,6.07-4.41,12.43-4.29,19.09Z"/>
    <path d="M1116.47,426.93v-181.05h50.25v25.56c2.8-4.43,6.45-8.72,10.94-12.87,4.49-4.14,10.18-7.56,17.07-10.24,6.89-2.68,15.06-4.03,24.52-4.03,11.09,0,21.45,2.16,31.08,6.48,9.63,4.32,17.42,11.12,23.38,20.4,5.95,9.28,8.93,21.39,8.93,36.33v119.42h-51.13v-113.11c0-9.81-2.95-17.16-8.84-22.06-5.9-4.9-12.99-7.35-21.27-7.35-5.6,0-11.01.99-16.2,2.98-5.19,1.99-9.43,4.96-12.69,8.93-3.27,3.97-4.9,8.87-4.9,14.71v115.92h-51.13Z"/>
    <path d="M1395.94,428.85c-16,0-28.34-2.04-37.03-6.13-8.7-4.09-14.71-9.81-18.04-17.16-3.33-7.35-4.99-15.87-4.99-25.56v-98.58h-29.42v-35.55h30.99l1.03-54.63h48.35v54.46h40.27v35.72h-40.27l.35,96.48c0,4.44.55,7.73,1.66,9.89,1.11,2.16,2.86,3.56,5.25,4.2,2.39.64,5.46.96,9.19.96h24.34v31.52c-2.45,1.05-6.13,2.04-11.03,2.98-4.9.93-11.79,1.4-20.66,1.4Z"/>
    <polygon class="cls-4" points="1602.9 274.42 1602.9 245.87 1456.17 245.87 1456.17 281.59 1540.92 281.59 1451.44 398.39 1451.44 426.93 1603.43 426.93 1603.43 391.21 1513.42 391.21 1602.9 274.42"/>
    <g>
      <rect class="cls-2" x="1634.58" y="248.19" width="48.23" height="178.74"/>
      <rect class="cls-1" x="1634.06" y="177.14" width="49.09" height="45.46"/>
    </g>
    <path d="M1709.32,277.71v-17.34h-7.4v-3.7h19.47v3.7h-7.45v17.34h-4.61ZM1724.28,277.71v-21.04h3.75l9.94,15.01h-1.98l9.74-15.01h3.7l.1,21.04h-4.41l-.05-14.6h.86l-8.01,12.32h-2.03l-8.26-12.32h1.06v14.6h-4.41Z"/>
  </g>
</svg>