<?xml version="1.0" encoding="UTF-8"?>
<svg id="Layer_3" data-name="Layer 3" xmlns="http://www.w3.org/2000/svg" xmlns:xlink="http://www.w3.org/1999/xlink" viewBox="0 0 932.22 900.35">
  <defs>
    <style>
      .cls-1 {
        fill: url(#linear-gradient-8);
      }

      .cls-2 {
        fill: url(#linear-gradient-7);
      }

      .cls-3 {
        fill: url(#linear-gradient-5);
      }

      .cls-4 {
        fill: url(#linear-gradient-6);
      }

      .cls-5 {
        fill: url(#linear-gradient-4);
      }

      .cls-6 {
        fill: url(#linear-gradient-3);
      }

      .cls-7 {
        fill: url(#linear-gradient-2);
      }

      .cls-8 {
        fill: url(#linear-gradient);
      }

      .cls-9 {
        fill: #fff;
      }
    </style>
    <linearGradient id="linear-gradient" x1="625.7" y1="736.52" x2="983.13" y2="736.52" gradientUnits="userSpaceOnUse">
      <stop offset="0" stop-color="#a18a50"/>
      <stop offset=".5" stop-color="#c5a662"/>
      <stop offset="1" stop-color="#a0894f"/>
    </linearGradient>
    <linearGradient id="linear-gradient-2" x1="625.7" y1="737.53" x2="983.13" y2="737.53" xlink:href="#linear-gradient"/>
    <linearGradient id="linear-gradient-3" x1="625.7" y1="617.1" x2="983.13" y2="617.1" xlink:href="#linear-gradient"/>
    <linearGradient id="linear-gradient-4" x1="188.4" y1="261.91" x2="743.81" y2="261.91" xlink:href="#linear-gradient"/>
    <linearGradient id="linear-gradient-5" x1="421.71" y1="196.88" x2="510.5" y2="196.88" xlink:href="#linear-gradient"/>
    <linearGradient id="linear-gradient-6" x1="350.43" y1="401.16" x2="403.43" y2="401.16" gradientUnits="userSpaceOnUse">
      <stop offset="0" stop-color="#a18a50"/>
      <stop offset="1" stop-color="#c5a662"/>
    </linearGradient>
    <linearGradient id="linear-gradient-7" x1="714.71" y1="278.34" x2="714.71" y2="377.63" gradientUnits="userSpaceOnUse">
      <stop offset="0" stop-color="#231f20" stop-opacity="0"/>
      <stop offset="1" stop-color="#231f20"/>
    </linearGradient>
    <linearGradient id="linear-gradient-8" x1="503.43" y1="391.63" x2="742.78" y2="391.63" xlink:href="#linear-gradient"/>
  </defs>
  <g>
    <path class="cls-9" d="M134.11,899.83v-36.32h6.75v30.62h18.99v5.71h-25.74Z"/>
    <path class="cls-9" d="M198.92,900.35c-4.95,0-8.83-1.4-11.65-4.2-2.82-2.8-4.23-6.87-4.23-12.2v-20.45h6.75v20.24c0,3.74.8,6.45,2.41,8.15,1.61,1.7,3.88,2.54,6.82,2.54s5.21-.85,6.8-2.54c1.59-1.69,2.39-4.41,2.39-8.15v-20.24h6.64v20.45c0,5.33-1.41,9.39-4.23,12.2-2.82,2.8-6.72,4.2-11.7,4.2Z"/>
    <path class="cls-9" d="M238.05,899.83l15.31-21.12v5.14l-14.63-20.34h7.68l10.9,15-3.17.05,10.74-15.05h7.32l-14.48,19.98v-4.88l15.36,21.22h-7.73l-11.42-15.98h3.06l-11.26,15.98h-7.68Z"/>
    <path class="cls-9" d="M312.15,900.35c-4.95,0-8.83-1.4-11.65-4.2-2.82-2.8-4.23-6.87-4.23-12.2v-20.45h6.75v20.24c0,3.74.8,6.45,2.41,8.15,1.61,1.7,3.88,2.54,6.82,2.54s5.21-.85,6.8-2.54c1.59-1.69,2.39-4.41,2.39-8.15v-20.24h6.64v20.45c0,5.33-1.41,9.39-4.23,12.2-2.82,2.8-6.72,4.2-11.7,4.2Z"/>
    <path class="cls-9" d="M355.68,899.83v-36.32h14.94c3.22,0,5.98.51,8.28,1.53,2.3,1.02,4.07,2.5,5.32,4.44,1.25,1.94,1.87,4.25,1.87,6.95s-.62,4.95-1.87,6.85c-1.25,1.9-3.02,3.37-5.32,4.41-2.3,1.04-5.06,1.56-8.28,1.56h-11.16l2.96-3.01v13.6h-6.75ZM362.43,886.96l-2.96-3.27h10.85c2.97,0,5.21-.64,6.72-1.92s2.26-3.06,2.26-5.35-.75-4.06-2.26-5.32-3.75-1.89-6.72-1.89h-10.85l2.96-3.32v21.07ZM379.45,899.83l-9.19-13.18h7.21l9.24,13.18h-7.26Z"/>
    <path class="cls-9" d="M420.7,899.83v-14.37l1.56,4.1-15.83-26.05h7.16l12.76,21.02h-4.05l12.71-21.02h6.64l-15.78,26.05,1.5-4.1v14.37h-6.69Z"/>
    <path class="cls-9" d="M496.72,899.83v-36.32h14.94c3.22,0,5.98.51,8.28,1.53,2.3,1.02,4.07,2.5,5.32,4.44,1.25,1.94,1.87,4.25,1.87,6.95s-.62,4.95-1.87,6.85c-1.25,1.9-3.02,3.37-5.32,4.41-2.3,1.04-5.06,1.56-8.28,1.56h-11.16l2.96-3.01v13.6h-6.75ZM503.47,886.96l-2.96-3.27h10.85c2.97,0,5.21-.64,6.72-1.92s2.26-3.06,2.26-5.35-.75-4.06-2.26-5.32-3.75-1.89-6.72-1.89h-10.85l2.96-3.32v21.07ZM520.49,899.83l-9.19-13.18h7.21l9.24,13.18h-7.26Z"/>
    <path class="cls-9" d="M559.56,894.12h20.5v5.71h-27.24v-36.32h26.52v5.71h-19.77v24.91ZM559.04,878.6h18.06v5.55h-18.06v-5.55Z"/>
    <path class="cls-9" d="M605.75,899.83v-36.32h5.55l22.78,28.02h-2.75v-28.02h6.64v36.32h-5.55l-22.73-28.02h2.75v28.02h-6.69Z"/>
    <path class="cls-9" d="M673.31,899.83v-30.62h-12.04v-5.71h30.82v5.71h-12.04v30.62h-6.75Z"/>
    <path class="cls-9" d="M710.2,899.83l16.35-36.32h6.64l16.4,36.32h-7.11l-14.01-32.74h2.7l-14.06,32.74h-6.9ZM717.73,891.42l1.87-5.29h19.56l1.82,5.29h-23.25Z"/>
    <path class="cls-9" d="M772.37,899.83v-36.32h6.75v30.62h18.99v5.71h-25.74Z"/>
  </g>
  <g>
    <path class="cls-9" d="M0,815.71v-221.48h93.43c17.66,0,32.11,2.81,43.35,8.42,11.23,5.62,19.5,13.4,24.81,23.36,5.31,9.96,7.96,21.42,7.96,34.39,0,11.64-1.81,21.47-5.44,29.48-3.63,8.02-8.37,14.68-14.24,19.99-5.87,5.31-12.28,9.65-19.22,13.02l41.2,92.82h-46.41l-36.15-85.31h-44.72v85.31H0ZM44.57,695.94h40.89c11.95,0,21.42-3.22,28.41-9.65,6.99-6.43,10.49-14.7,10.49-24.81s-3.37-18.28-10.11-24.2c-6.74-5.92-15.27-8.88-25.58-8.88h-44.11v67.55Z"/>
    <path class="cls-9" d="M274.63,818.77c-15.73,0-29.54-3.29-41.43-9.88-11.9-6.59-21.16-15.9-27.8-27.95-6.64-12.05-9.96-26.24-9.96-42.58s3.04-30.1,9.11-42.81c6.07-12.71,14.83-22.77,26.27-30.17,11.43-7.4,25.27-11.1,41.51-11.1s29.66,3.4,40.59,10.19c10.93,6.79,19.2,16.24,24.81,28.34,5.61,12.1,8.42,26.06,8.42,41.89v12.1h-106.45c0,8.07,1.33,15.09,3.98,21.06,2.65,5.97,6.51,10.57,11.56,13.78,5.05,3.22,11.15,4.82,18.3,4.82,7.66,0,14.35-1.63,20.07-4.9,5.72-3.27,9.7-8.63,11.95-16.08h40.43c-1.84,11.23-6.33,20.83-13.48,28.8-7.15,7.96-15.83,14.04-26.04,18.23-10.21,4.19-20.83,6.28-31.86,6.28ZM239.7,720.13h64.64c0-6.33-1.2-12.12-3.6-17.38-2.4-5.26-5.97-9.44-10.72-12.56-4.75-3.11-10.7-4.67-17.85-4.67s-12.69,1.66-17.54,4.98c-4.85,3.32-8.58,7.63-11.18,12.94-2.6,5.31-3.86,10.87-3.75,16.69Z"/>
    <path class="cls-9" d="M378.47,815.71v-158.37h43.96v22.36c2.45-3.88,5.64-7.63,9.57-11.26,3.93-3.62,8.91-6.61,14.93-8.96,6.02-2.35,13.17-3.52,21.44-3.52,9.7,0,18.76,1.89,27.19,5.67,8.42,3.78,15.24,9.73,20.45,17.84,5.21,8.12,7.81,18.71,7.81,31.78v104.46h-44.72v-98.94c0-8.58-2.58-15.01-7.73-19.3-5.16-4.29-11.36-6.43-18.61-6.43-4.9,0-9.63.87-14.17,2.6-4.54,1.74-8.25,4.34-11.1,7.81-2.86,3.47-4.29,7.76-4.29,12.87v101.4h-44.72Z"/>
    <path class="cls-9" d="M622.92,817.39c-13.99,0-24.79-1.78-32.39-5.36-7.61-3.57-12.87-8.58-15.78-15.01-2.91-6.43-4.37-13.89-4.37-22.36v-86.23h-25.73v-31.09h27.11l.9-47.79h42.29v47.63h35.23v31.25h-35.23l.31,84.39c0,3.88.48,6.77,1.45,8.65.97,1.89,2.5,3.12,4.6,3.68,2.09.56,4.77.84,8.04.84h21.29v27.57c-2.14.92-5.36,1.79-9.65,2.6-4.29.82-10.32,1.23-18.07,1.23Z"/>
    <polygon class="cls-8" points="803.96 682.3 803.96 657.34 675.6 657.34 675.6 688.58 749.74 688.58 671.47 790.74 671.47 815.71 804.42 815.71 804.42 784.46 725.69 784.46 803.96 682.3"/>
    <g>
      <rect class="cls-7" x="831.67" y="659.36" width="42.19" height="156.35"/>
      <rect class="cls-6" x="831.21" y="597.21" width="42.94" height="39.77"/>
    </g>
    <path class="cls-9" d="M897.04,685.19v-15.17h-6.47v-3.24h17.03v3.24h-6.52v15.17h-4.04ZM910.13,685.19v-18.41h3.28l8.69,13.13h-1.73l8.52-13.13h3.24l.09,18.41h-3.86l-.04-12.77h.75l-7.01,10.78h-1.77l-7.23-10.78h.93v12.77h-3.86Z"/>
  </g>
  <g>
    <path class="cls-5" d="M716.32,523.8c-14.62-.38-26.08-12.76-26.08-27.38V214.27s0-.03-.02-.04L470.23,60.44s-.04-.01-.05,0l-228.18,154.07s-.02.02-.02.04v281.87c0,14.62-11.46,27.01-26.08,27.38s-27.5-11.75-27.5-26.78V197.47c0-7.14,3.55-13.82,9.47-17.81L458.5,3.68c7.37-4.98,17.05-4.9,24.34.2l251.8,176.04c5.75,4.02,9.18,10.6,9.18,17.61v299.5c0,15.03-12.38,27.17-27.5,26.78Z"/>
    <circle class="cls-3" cx="466.11" cy="196.88" r="44.4"/>
    <path class="cls-4" d="M376.93,526.13c-14.64,0-26.5-11.86-26.5-26.5v-196.94c0-14.64,11.86-26.5,26.5-26.5s26.5,11.86,26.5,26.5v196.94c0,14.64-11.86,26.5-26.5,26.5Z"/>
    <path class="cls-2" d="M742.78,377.63l-15.32-49.65c-5.46-12.51-18.16-31.08-27.66-40.88l-13.17-8.77h56.15v99.29Z"/>
    <path class="cls-1" d="M716.28,526.13c-14.64,0-26.5-11.86-26.5-26.5v-113.81c0-41.74-29.91-75.69-66.68-75.69s-66.68,33.96-66.68,75.69v113.81c0,14.64-11.86,26.5-26.5,26.5s-26.5-11.86-26.5-26.5v-113.81c0-70.96,53.69-128.69,119.68-128.69s119.68,57.73,119.68,128.69v113.81c0,14.64-11.86,26.5-26.5,26.5Z"/>
  </g>
</svg>